<?xml version="1.0" encoding="UTF-8" standalone="no"?>
<!-- Created with Inkscape (http://www.inkscape.org/) -->

<svg
   xmlns:dc="http://purl.org/dc/elements/1.1/"
   xmlns:cc="http://creativecommons.org/ns#"
   xmlns:rdf="http://www.w3.org/1999/02/22-rdf-syntax-ns#"
   xmlns:svg="http://www.w3.org/2000/svg"
   xmlns="http://www.w3.org/2000/svg"
   xmlns:sodipodi="http://sodipodi.sourceforge.net/DTD/sodipodi-0.dtd"
   xmlns:inkscape="http://www.inkscape.org/namespaces/inkscape"
   version="1.1"
   id="svg284"
   xml:space="preserve"
   width="1340.8533"
   height="509.95868"
   viewBox="0 0 1340.8533 509.95868"
   sodipodi:docname="logo-light.svg"
   inkscape:version="0.92.4 (unknown)"><metadata
     id="metadata290"><rdf:RDF><cc:Work
         rdf:about=""><dc:format>image/svg+xml</dc:format><dc:type
           rdf:resource="http://purl.org/dc/dcmitype/StillImage" /><dc:title></dc:title></cc:Work></rdf:RDF></metadata><defs
     id="defs288"><clipPath
       clipPathUnits="userSpaceOnUse"
       id="clipPath300"><path
         d="M 0,382.469 H 1005.641 V 0 H 0 Z"
         id="path298"
         inkscape:connector-curvature="0" /></clipPath><clipPath
       clipPathUnits="userSpaceOnUse"
       id="clipPath362"><path
         d="M 298.833,382.469 H 704.948 V 0 H 298.833 Z"
         id="path360"
         inkscape:connector-curvature="0" /></clipPath></defs><sodipodi:namedview
     pagecolor="#ffffff"
     bordercolor="#666666"
     borderopacity="1"
     objecttolerance="10"
     gridtolerance="10"
     guidetolerance="10"
     inkscape:pageopacity="0"
     inkscape:pageshadow="2"
     inkscape:window-width="643"
     inkscape:window-height="480"
     id="namedview286"
     showgrid="false"
     inkscape:zoom="0.35201465"
     inkscape:cx="670.42664"
     inkscape:cy="254.97934"
     inkscape:window-x="0"
     inkscape:window-y="27"
     inkscape:window-maximized="0"
     inkscape:current-layer="g292" /><g
     id="g292"
     inkscape:groupmode="layer"
     inkscape:label="logo-light"
     transform="matrix(1.3333333,0,0,-1.3333333,0,509.95867)"><g
       id="g294"><g
         id="g296"
         clip-path="url(#clipPath300)"><g
           id="g302"
           transform="translate(166.5625,151.1143)"><path
             d="m 0,0 c 5.122,0 9.968,0.979 14.54,2.938 4.571,1.958 8.689,4.814 12.354,8.568 3.586,3.796 6.334,8.11 8.245,12.945 1.912,4.835 2.867,9.926 2.867,15.271 0,5.386 -0.945,10.476 -2.838,15.271 -1.891,4.795 -4.648,9.109 -8.274,12.945 -3.586,3.754 -7.675,6.61 -12.265,8.569 -4.591,1.959 -9.468,2.938 -14.629,2.938 -5.124,0 -9.951,-0.979 -14.482,-2.938 -4.532,-1.959 -8.63,-4.815 -12.295,-8.569 -3.625,-3.877 -6.383,-8.192 -8.275,-12.945 -1.892,-4.754 -2.837,-9.845 -2.837,-15.271 0,-5.385 0.945,-10.477 2.837,-15.271 1.892,-4.795 4.65,-9.109 8.275,-12.945 3.626,-3.794 7.684,-6.661 12.176,-8.599 C -10.108,0.968 -5.242,0 0,0 m 50.222,39.722 c 0,-6.766 -1.261,-13.194 -3.781,-19.283 C 43.921,14.351 40.291,8.926 35.551,4.169 30.724,-0.633 25.278,-4.289 19.214,-6.799 13.149,-9.308 6.742,-10.563 -0.005,-10.563 c -6.748,0 -13.145,1.255 -19.188,3.764 -6.044,2.51 -11.456,6.166 -16.241,10.968 -4.783,4.846 -8.424,10.29 -10.922,16.336 -2.499,6.045 -3.748,12.451 -3.748,19.217 0,6.853 1.249,13.324 3.748,19.413 2.498,6.09 6.139,11.557 10.922,16.402 4.699,4.757 10.059,8.359 16.08,10.804 6.023,2.444 12.472,3.666 19.349,3.666 6.919,0 13.4,-1.234 19.443,-3.699 6.043,-2.467 11.415,-6.057 16.113,-10.771 4.783,-4.845 8.424,-10.312 10.922,-16.402 2.499,-6.089 3.749,-12.56 3.749,-19.413"
             style="fill:#ffffff;fill-opacity:1;fill-rule:nonzero;stroke:none"
             id="path304"
             inkscape:connector-curvature="0" /></g><path
           d="M 85.936,239.267 H 96.964 V 143.225 H 85.936 Z"
           style="fill:#ffffff;fill-opacity:1;fill-rule:nonzero;stroke:none"
           id="path306"
           inkscape:connector-curvature="0" /><g
           id="g308"
           transform="translate(830.4834,238.3223)"><path
             d="m 0,0 c 0,-18.354 -0.002,-36.707 0.001,-55.06 0.001,-5.821 -0.368,-11.604 -1.945,-17.241 -2.53,-9.042 -7.986,-15.411 -17.12,-18.207 -6.921,-2.119 -14.003,-2.228 -21.064,-0.878 -5.022,0.96 -9.423,3.3 -13.068,6.968 -2.915,2.933 -4.74,6.5 -6.18,10.312 -2.049,5.422 -2.688,11.077 -2.695,16.817 -0.024,19.051 -0.01,38.101 -0.01,57.151 v 1.865 h -5.954 v -1.71 c 0,-17.703 -0.011,-35.406 0.01,-53.108 0.004,-3.25 0.096,-6.502 0.22,-9.749 0.245,-6.402 1.893,-12.446 4.729,-18.182 2.643,-5.346 6.648,-9.332 11.906,-12.103 4.929,-2.599 10.23,-3.757 15.738,-4.177 5.176,-0.393 10.298,0.018 15.357,1.089 6.322,1.34 11.887,4.166 16.381,8.894 3.559,3.744 5.885,8.202 7.322,13.131 1.755,6.023 2.321,12.205 2.323,18.45 0.006,18.678 0.003,37.357 0.003,56.035 V 1.725 L 0,1.725 Z"
             style="fill:#ffffff;fill-opacity:1;fill-rule:nonzero;stroke:none"
             id="path310"
             inkscape:connector-curvature="0" /></g><g
           id="g312"
           transform="translate(548.998,239.9146)"><path
             d="m 0,0 h -5.984 v -97.027 h 61.09 v 5.184 H 0 Z"
             style="fill:#ffffff;fill-opacity:1;fill-rule:nonzero;stroke:none"
             id="path314"
             inkscape:connector-curvature="0" /></g><g
           id="g316"
           transform="translate(341.478,169.7998)"><path
             d="m 0,0 c -0.288,7.23 -3.515,12.852 -9.396,16.98 -2.807,1.97 -5.893,3.414 -9.135,4.501 -5.577,1.871 -11.335,3.022 -17.079,4.236 -4.511,0.953 -9.02,1.937 -13.477,3.106 -3.709,0.972 -7.251,2.434 -10.394,4.712 -3.638,2.635 -6.11,6.019 -6.634,10.587 -0.158,1.386 -0.195,2.8 -0.137,4.195 0.154,3.784 1.298,7.221 3.682,10.229 2.89,3.648 6.689,5.893 11.041,7.305 4.906,1.591 9.963,1.936 15.075,1.69 3.979,-0.192 7.88,-0.859 11.621,-2.252 9.122,-3.399 14.724,-9.74 16.144,-19.52 0.129,-0.892 0.215,-1.787 0.312,-2.661 h 6.04 c -0.27,1.937 -0.45,3.921 -0.858,5.857 -1.755,8.318 -6.255,14.671 -13.728,18.84 -1.607,0.897 -3.264,1.632 -4.961,2.244 -0.288,0.101 -0.595,0.206 -0.926,0.313 -0.04,0.013 -0.08,0.027 -0.12,0.039 -1.748,0.561 -4.081,1.175 -6.932,1.657 -0.397,0.064 -0.794,0.13 -1.193,0.188 -0.036,0.005 -0.073,0.01 -0.11,0.015 -0.784,0.111 -1.571,0.206 -2.359,0.298 -0.083,0.008 -0.16,0.019 -0.244,0.027 -8.721,0.879 -17.194,-1.141 -18.398,-1.444 -3.373,-0.918 -6.581,-2.279 -9.553,-4.238 -4.216,-2.779 -7.333,-6.478 -9.139,-11.214 -1.393,-3.65 -1.595,-7.462 -1.343,-11.317 0.361,-5.512 2.714,-10.015 6.868,-13.62 2.936,-2.549 6.333,-4.281 9.954,-5.587 5.716,-2.061 11.673,-3.191 17.59,-4.485 4.822,-1.054 9.653,-2.097 14.409,-3.404 4.013,-1.102 7.84,-2.755 11.113,-5.437 2.578,-2.112 4.682,-4.601 5.535,-7.901 2.111,-8.162 0.275,-16.035 -6.737,-21.641 -5.082,-4.064 -11.068,-5.675 -17.395,-6.185 -4.243,-0.342 -8.494,-0.143 -12.707,0.537 -3.925,0.634 -7.778,1.538 -11.35,3.352 -8.473,4.303 -13.487,10.999 -14.174,20.651 -0.106,1.48 -0.156,2.964 -0.235,4.485 h -5.815 c 0,-2.605 0.159,-4.963 0.49,-7.359 0.871,-6.308 3.585,-11.761 8.037,-16.295 3.935,-4.008 8.942,-6.699 14.292,-8.307 6.186,-1.86 12.873,-2.607 19.325,-2.389 0.605,0.021 1.21,0.051 1.815,0.092 3.105,0.209 6.195,0.693 9.206,1.49 2.947,0.779 6.125,1.786 8.742,3.387 0.741,0.454 1.486,0.941 2.202,1.44 4.395,3.064 7.794,6.957 9.687,12.032 C -0.053,-7.296 0.146,-3.663 0,0"
             style="fill:#ffffff;fill-opacity:1;fill-rule:nonzero;stroke:none"
             id="path318"
             inkscape:connector-curvature="0" /></g><g
           id="g320"
           transform="translate(432.854,180.7754)"><path
             d="m 0,0 c 0,-0.336 -0.028,-0.445 -0.039,-0.623 -0.339,-5.251 -1.823,-10.183 -4.254,-14.821 -6.399,-12.211 -19.249,-21.897 -37.028,-19.102 -7.946,1.249 -14.785,4.752 -20.521,10.359 -5.295,5.177 -8.732,11.478 -10.842,18.533 -2.545,8.512 -2.928,17.176 -1.603,25.916 0.989,6.522 3.038,12.716 6.632,18.293 7.091,11 17.096,17.207 30.261,18.018 5.796,0.356 11.479,-0.294 16.859,-2.599 9.868,-4.227 16.353,-11.372 18.684,-22.018 0.106,-0.484 0.2,-0.97 0.293,-1.422 H 4.37 c -0.377,2.671 -1.061,5.181 -2.037,7.609 -5.332,13.253 -15.178,20.792 -29.127,23.115 -5.977,0.814 -11.156,0.533 -14.133,0.22 -0.427,-0.055 -0.855,-0.11 -1.282,-0.164 -5.528,-0.697 -10.698,-2.465 -15.54,-5.206 -9.347,-5.293 -15.574,-13.224 -19.364,-23.146 -3.142,-8.228 -4.267,-16.773 -3.818,-25.56 0.33,-6.437 1.504,-12.689 3.813,-18.706 3.147,-8.203 7.965,-15.208 15.15,-20.398 9.412,-6.8 19.974,-9.316 31.471,-8.228 6.907,0.654 13.142,3.085 18.707,7.163 7.93,5.812 13.002,13.654 15.912,22.962 C 5.11,-6.641 5.727,-3.4 5.99,0 Z"
             style="fill:#ffffff;fill-opacity:1;fill-rule:nonzero;stroke:none"
             id="path322"
             inkscape:connector-curvature="0" /></g><g
           id="g324"
           transform="translate(457.2773,236.8125)"><path
             d="M 0,0 V 3.102 H -6.047 V 1.544 c 0,-16.28 -0.015,-32.56 0.01,-48.84 0.007,-4.476 0.096,-8.954 0.222,-13.429 0.19,-6.764 1.872,-13.16 4.919,-19.2 2.398,-4.751 5.909,-8.449 10.489,-11.147 5.292,-3.119 11.079,-4.491 17.143,-4.944 5.15,-0.383 10.252,-0.022 15.277,1.079 12.097,2.651 20.116,9.856 23.805,21.732 1.871,6.02 2.465,12.239 2.482,18.502 0.046,17.594 0.023,35.187 0.017,52.781 h -10e-4 v 1.507 c 0,0.843 -0.001,1.686 -0.001,2.528 0,0.028 0.001,0.058 0.001,0.086 V 3.102 H 62.258 V 1.463 c -0.016,-19.592 -0.019,-39.183 -0.054,-58.775 -0.009,-4.776 -0.653,-9.485 -1.992,-14.072 -2.6,-8.907 -8.128,-15.11 -17.118,-17.841 -6.9,-2.096 -13.974,-2.214 -21.017,-0.867 -5.04,0.964 -9.461,3.295 -13.136,6.973 -3.042,3.046 -4.919,6.758 -6.371,10.729 -1.93,5.279 -2.558,10.763 -2.557,16.347"
             style="fill:#ffffff;fill-opacity:1;fill-rule:nonzero;stroke:none"
             id="path326"
             inkscape:connector-curvature="0" /></g><g
           id="g328"
           transform="translate(673.9492,207.0586)"><path
             d="m 0,0 c -2.086,-8.286 -7.513,-13.096 -15.645,-15.082 -2.034,-0.497 -4.12,-0.656 -6.218,-0.654 -11.116,0.009 -22.231,0.003 -33.346,0.003 h -1.505 v 43.374 c 0.421,0 0.737,-0.021 1.091,-0.021 11.72,0.004 23.44,0.06 35.159,-0.028 4.319,-0.033 8.46,-0.967 12.144,-3.459 3.806,-2.575 6.453,-6.006 7.786,-10.385 C 0.842,9.229 1.17,4.644 0,0 M 6.009,13.246 C 4.22,21.979 -0.836,28.04 -9.367,30.979 c -4.082,1.406 -8.353,1.813 -12.626,1.836 -13.025,0.073 -26.05,0.027 -39.074,0.027 h -1.575 -0.184 v -34.463 0 c -0.017,-21.634 0.025,-48.078 0.108,-62.55 h 5.989 v 43.22 h 1.6 c 10.606,0 21.212,-0.001 31.817,0.001 4.531,10e-4 8.993,0.516 13.3,1.971 7.992,2.701 13.463,7.913 15.678,16.187 1.419,5.298 1.435,10.705 0.343,16.038"
             style="fill:#ffffff;fill-opacity:1;fill-rule:nonzero;stroke:none"
             id="path330"
             inkscape:connector-curvature="0" /></g><g
           id="g332"
           transform="translate(684.2812,239.9146)"><path
             d="m 0,0 h -3.175 -0.373 v -0.032 -5.016 h 3.111 30.995 V -18.366 -31.392 -44.558 -57.724 -70.89 c 0,-4.342 0,-8.685 0.001,-13.027 0,-4.367 10e-4,-8.734 0.002,-13.11 h 5.959 v 23.071 22.971 c 0,7.657 -0.001,15.314 0,22.971 10e-4,7.639 -0.003,15.277 0.002,22.997 h 5.102 4.902 4.903 4.762 1.372 3.53 6.177 c 0.791,-0.006 1.584,-0.016 2.379,0 H 70.85 V -4.968 0 Z"
             style="fill:#ffffff;fill-opacity:1;fill-rule:nonzero;stroke:none"
             id="path334"
             inkscape:connector-curvature="0" /></g><g
           id="g336"
           transform="translate(917.5137,147.0937)"><path
             d="M 0,0 V -4.376 H 2.393 4.236 Z"
             style="fill:#ffffff;fill-opacity:1;fill-rule:nonzero;stroke:none"
             id="path338"
             inkscape:connector-curvature="0" /></g><g
           id="g340"
           transform="translate(894.6406,192.1777)"><path
             d="m 0,0 c -11.068,0.004 -22.137,0.001 -33.204,0.001 h -1.66 v 40.603 1.932 0.078 h 1.986 l -10e-4,-10e-4 c 0.279,0 0.559,10e-4 0.838,10e-4 h 0.588 l -0.002,0.001 C -20.681,42.624 -9.906,42.666 0.868,42.584 5.077,42.553 9.236,41.895 13.119,40.133 19.79,37.104 23.63,32.011 24.304,24.625 24.674,20.562 24.297,16.591 22.748,12.81 20.191,6.565 15.427,2.835 8.988,1.147 6.047,0.377 3.046,-0.001 0,0 m 28.947,-42.408 c -0.033,5.178 -0.066,10.355 -0.149,15.532 -0.053,3.267 -0.374,6.521 -1.204,9.701 -1.926,7.378 -6.502,12.122 -13.95,13.982 -1.261,0.314 -2.549,0.521 -3.825,0.778 0.804,0.29 1.496,0.481 2.25,0.702 8.056,2.356 13.829,6.999 16.791,14.901 1.487,3.963 1.765,8.106 1.48,12.282 -0.2,2.942 -0.774,5.823 -2.021,8.534 -2.638,5.737 -7.194,9.286 -13.001,11.399 -5.109,1.86 -10.447,2.397 -15.821,2.428 -12.774,0.072 -25.55,0.026 -38.325,0.021 h -2.069 v -0.078 -3.764 -86.323 -7.213 c 1.641,-0.009 3.234,-0.014 4.872,0 h 1.137 v 0.006 6.007 38.267 h 1.502 c 11.447,-10e-4 22.892,-0.007 34.337,0.003 2.341,0.002 4.663,-0.178 6.954,-0.641 7.515,-1.519 12.812,-5.945 14.108,-14.108 0.503,-3.166 0.661,-6.406 0.732,-9.618 0.138,-6.211 0.102,-12.426 0.144,-18.639 0.003,-0.397 0.065,-0.796 0.101,-1.211 h 5.221 0.72 0.016 v 7.053 z"
             style="fill:#ffffff;fill-opacity:1;fill-rule:nonzero;stroke:none"
             id="path342"
             inkscape:connector-curvature="0" /></g><g
           id="g344"
           transform="translate(923.6201,142.7178)"><path
             d="M 0,0 V 0.019 L -0.032,0 Z"
             style="fill:#ffffff;fill-opacity:1;fill-rule:nonzero;stroke:none"
             id="path346"
             inkscape:connector-curvature="0" /></g><g
           id="g348"
           transform="translate(945.7246,147.9424)"><path
             d="m 0,0 v 42.778 h 55.65 v 5.268 H -0.02 v 39.002 h 4.951 4.914 5.053 4.914 4.914 4.913 5.053 4.914 4.914 4.913 6.331 c 0.793,-0.006 1.583,-0.016 2.364,0 h 1.147 v 5.027 l -0.031,-0.006 v 0.006 H -5.991 C -5.992,59.674 -5.992,27.272 -5.992,-5.262 h 1.899 64.01 V 0 Z"
             style="fill:#ffffff;fill-opacity:1;fill-rule:nonzero;stroke:none"
             id="path350"
             inkscape:connector-curvature="0" /></g><g
           id="g352"
           transform="translate(11.751,187.9746)"><path
             d="m 0,0 21.038,-0.065 c 3.95,-0.074 7.95,-0.442 11.552,-2.214 5.097,-2.508 8.265,-5.77 9.423,-11.143 0.553,-2.571 0.594,-5.174 0.033,-7.755 -0.79,-3.629 -2.853,-6.417 -5.842,-8.542 -2.892,-2.056 -6.163,-3.183 -9.622,-3.837 -2.52,-0.476 -5.06,-0.649 -7.624,-0.636 -5.768,0.028 -11.537,0.008 -17.305,0.008 l -1.653,0 z m 0.047,40.529 c 0.297,0 0.514,10e-4 0.738,0 6.555,-0.019 13.112,0.037 19.665,-0.099 3.061,-0.063 6.085,-0.622 8.939,-1.858 5.787,-2.505 8.274,-6.775 8.12,-12.841 -0.028,-1.11 -0.156,-2.225 -0.333,-3.322 C 36.531,18.423 34.3,15.525 30.875,13.513 28.606,12.18 26.114,11.496 23.519,11.104 19.594,10.511 15.647,10.571 11.699,10.577 8.212,10.581 4.725,10.578 1.238,10.578 H 0.047 Z m 0.589,-85.421 h 11.488 l 3.078,-0.02 c 11.405,0.072 16.867,0.291 24.839,4.241 20.541,10.179 15.458,30.696 9.135,38.042 -6.324,7.346 -16.322,8.418 -16.322,8.418 0,0 8.974,3.752 13.52,10.486 2.25,3.334 7.5,14.5 -1.365,25.168 -8.864,10.668 -27.338,9.828 -27.338,9.828 H -11.751 V -44.92 c 0,0 6.051,0 12.418,0.001 z"
             style="fill:#ffffff;fill-opacity:1;fill-rule:nonzero;stroke:none"
             id="path354"
             inkscape:connector-curvature="0" /></g><g
           id="g356"><g
             id="g358" /><g
             id="g374"><g
               clip-path="url(#clipPath362)"
               id="g372"
               style="opacity:0.10000598"><g
                 transform="translate(704.7949,109.6123)"
                 id="g366"><path
                   d="m 0,0 c -1.078,27.098 -13.173,48.167 -35.215,63.638 -10.516,7.382 -22.083,12.793 -34.232,16.868 -20.903,7.011 -42.481,11.327 -64.009,15.876 -16.903,3.573 -33.803,7.259 -50.509,11.639 -13.898,3.645 -27.172,9.123 -38.953,17.658 -13.633,9.876 -22.896,22.557 -24.858,39.678 -0.596,5.196 -0.731,10.495 -0.517,15.723 0.581,14.179 4.868,27.061 13.799,38.332 10.834,13.673 25.07,22.088 41.378,27.377 18.389,5.963 37.339,7.255 56.5,6.333 14.909,-0.719 29.53,-3.218 43.55,-8.44 34.187,-12.736 55.181,-36.501 60.502,-73.154 0.484,-3.341 0.808,-6.694 1.169,-9.969 h 22.637 c -1.013,7.258 -1.687,14.692 -3.218,21.947 -6.575,31.176 -23.438,54.982 -51.447,70.608 -6.021,3.36 -12.233,6.116 -18.591,8.409 -1.079,0.38 -2.228,0.771 -3.469,1.173 -0.152,0.05 -0.302,0.099 -0.453,0.149 -6.549,2.099 -15.293,4.4 -25.977,6.205 -1.488,0.243 -2.975,0.491 -4.472,0.705 -0.136,0.019 -0.273,0.039 -0.409,0.058 -2.941,0.415 -5.891,0.774 -8.843,1.114 -0.31,0.033 -0.6,0.074 -0.914,0.106 -32.684,3.293 -64.44,-4.279 -68.95,-5.414 -12.642,-3.442 -24.663,-8.539 -35.801,-15.881 -15.8,-10.415 -27.482,-24.28 -34.253,-42.028 -5.22,-13.68 -5.975,-27.965 -5.031,-42.413 1.35,-20.654 10.172,-37.53 25.736,-51.042 11.005,-9.553 23.738,-16.047 37.308,-20.939 21.421,-7.724 43.748,-11.961 65.922,-16.808 18.069,-3.95 36.175,-7.861 53.998,-12.757 15.04,-4.131 29.385,-10.322 41.651,-20.377 9.659,-7.918 17.543,-17.24 20.742,-29.607 7.912,-30.589 1.031,-60.095 -25.248,-81.106 -19.044,-15.228 -41.48,-21.269 -65.192,-23.18 -15.9,-1.28 -31.832,-0.537 -47.623,2.014 -14.708,2.376 -29.147,5.763 -42.534,12.561 -31.754,16.126 -50.545,41.221 -53.121,77.392 -0.395,5.548 -0.585,11.111 -0.877,16.81 h -21.795 c 0,-9.761 0.597,-18.601 1.836,-27.577 3.264,-23.645 13.436,-44.079 30.119,-61.072 14.75,-15.022 33.513,-25.104 53.563,-31.132 23.184,-6.97 48.245,-9.769 72.422,-8.952 2.27,0.078 4.538,0.191 6.804,0.343 11.639,0.783 23.219,2.601 34.499,5.584 11.045,2.922 22.957,6.695 32.763,12.696 2.779,1.701 5.568,3.525 8.255,5.396 16.47,11.479 29.208,26.074 36.302,45.093 C -0.197,-27.34 0.547,-13.727 0,0"
                   style="fill:#ffffff;fill-opacity:1;fill-rule:nonzero;stroke:none"
                   id="path364"
                   inkscape:connector-curvature="0" /></g><g
                 transform="translate(345.3521,179.4443)"
                 id="g370"><path
                   d="m 0,0 83.282,-0.261 c 15.637,-0.289 31.471,-1.747 45.731,-8.763 20.174,-9.927 32.716,-22.841 37.299,-44.112 2.192,-10.177 2.355,-20.48 0.133,-30.696 -3.126,-14.367 -11.293,-25.401 -23.128,-33.817 -11.447,-8.14 -24.398,-12.601 -38.089,-15.189 -9.978,-1.885 -20.029,-2.571 -30.179,-2.52 -22.835,0.114 -45.671,0.036 -68.507,0.036 H 0 Z m 0.185,160.439 c 1.174,0 2.035,0.003 2.92,0 25.95,-0.074 51.907,0.146 77.848,-0.39 12.116,-0.251 24.09,-2.466 35.385,-7.355 22.91,-9.916 32.757,-26.82 32.147,-50.835 -0.111,-4.393 -0.619,-8.807 -1.321,-13.149 C 144.613,72.931 135.781,61.458 122.223,53.492 113.242,48.216 103.374,45.508 93.102,43.956 77.566,41.608 61.941,41.847 46.313,41.868 32.508,41.887 18.704,41.872 4.899,41.872 H 0.185 Z M 2.516,-177.71 h 45.478 l 12.186,-0.084 c 45.147,0.289 66.769,1.154 98.326,16.792 81.317,40.294 61.195,121.515 36.162,150.594 -25.033,29.078 -64.612,33.323 -64.612,33.323 0,0 35.527,14.854 53.522,41.513 8.907,13.196 29.689,57.4 -5.403,99.631 C 143.084,206.29 69.954,202.962 69.954,202.962 H -46.519 v -380.783 c 0,0 23.953,0 49.16,0.002 z"
                   style="fill:#ffffff;fill-opacity:1;fill-rule:nonzero;stroke:none"
                   id="path368"
                   inkscape:connector-curvature="0" /></g></g></g></g></g></g></g></svg>