<?xml version="1.0" encoding="UTF-8" standalone="no"?>
<!-- Created with Inkscape (http://www.inkscape.org/) -->

<svg
   xmlns:dc="http://purl.org/dc/elements/1.1/"
   xmlns:cc="http://creativecommons.org/ns#"
   xmlns:rdf="http://www.w3.org/1999/02/22-rdf-syntax-ns#"
   xmlns:svg="http://www.w3.org/2000/svg"
   xmlns="http://www.w3.org/2000/svg"
   xmlns:sodipodi="http://sodipodi.sourceforge.net/DTD/sodipodi-0.dtd"
   xmlns:inkscape="http://www.inkscape.org/namespaces/inkscape"
   version="1.1"
   id="svg178"
   xml:space="preserve"
   width="32.834667"
   height="44"
   viewBox="0 0 32.834667 44"
   sodipodi:docname="cart-icon.svg"
   inkscape:version="0.92.4 (unknown)"><metadata
     id="metadata184"><rdf:RDF><cc:Work
         rdf:about=""><dc:format>image/svg+xml</dc:format><dc:type
           rdf:resource="http://purl.org/dc/dcmitype/StillImage" /><dc:title></dc:title></cc:Work></rdf:RDF></metadata><defs
     id="defs182"><clipPath
       clipPathUnits="userSpaceOnUse"
       id="clipPath194"><path
         d="M 0,33 H 24.626 V 0 H 0 Z"
         id="path192"
         inkscape:connector-curvature="0" /></clipPath></defs><sodipodi:namedview
     pagecolor="#ffffff"
     bordercolor="#666666"
     borderopacity="1"
     objecttolerance="10"
     gridtolerance="10"
     guidetolerance="10"
     inkscape:pageopacity="0"
     inkscape:pageshadow="2"
     inkscape:window-width="643"
     inkscape:window-height="480"
     id="namedview180"
     showgrid="false"
     inkscape:zoom="5.3636364"
     inkscape:cx="16.417334"
     inkscape:cy="22"
     inkscape:window-x="0"
     inkscape:window-y="27"
     inkscape:window-maximized="0"
     inkscape:current-layer="g186" /><g
     id="g186"
     inkscape:groupmode="layer"
     inkscape:label="cart-icon"
     transform="matrix(1.3333333,0,0,-1.3333333,0,44)"><g
       id="g188"><g
         id="g190"
         clip-path="url(#clipPath194)"><g
           id="g196"
           transform="translate(1.0244,0.9995)"><path
             d="M 0,0 H 22.576 L 21.499,22.625 H 1.077 Z M 23.102,-1 H -0.524 c -0.137,0 -0.268,0.057 -0.362,0.155 -0.094,0.1 -0.144,0.233 -0.138,0.369 l 1.125,23.625 c 0.013,0.268 0.232,0.476 0.5,0.476 h 21.376 c 0.266,0 0.486,-0.208 0.5,-0.476 L 23.602,-0.476 C 23.607,-0.612 23.558,-0.745 23.463,-0.845 23.368,-0.943 23.237,-1 23.102,-1"
             style=";fill-opacity:1;fill-rule:nonzero;stroke:none"
             id="path198"
             inkscape:connector-curvature="0" /></g><g
           id="g200"
           transform="translate(17.7178,21.625)"><path
             d="m 0,0 c -0.276,0 -0.5,0.224 -0.5,0.5 v 4.97 c 0,2.704 -2.2,4.905 -4.905,4.905 -2.705,0 -4.905,-2.201 -4.905,-4.905 V 0.5 c 0,-0.276 -0.224,-0.5 -0.5,-0.5 -0.276,0 -0.5,0.224 -0.5,0.5 v 4.97 c 0,3.256 2.649,5.905 5.905,5.905 3.256,0 5.905,-2.649 5.905,-5.905 V 0.5 C 0.5,0.224 0.276,0 0,0"
             style=";fill-opacity:1;fill-rule:nonzero;stroke:none"
             id="path202"
             inkscape:connector-curvature="0" /></g></g></g></g></svg>