<?xml version="1.0" encoding="UTF-8" standalone="no"?>
<!-- Created with Inkscape (http://www.inkscape.org/) -->

<svg
   xmlns:dc="http://purl.org/dc/elements/1.1/"
   xmlns:cc="http://creativecommons.org/ns#"
   xmlns:rdf="http://www.w3.org/1999/02/22-rdf-syntax-ns#"
   xmlns:svg="http://www.w3.org/2000/svg"
   xmlns="http://www.w3.org/2000/svg"
   xmlns:sodipodi="http://sodipodi.sourceforge.net/DTD/sodipodi-0.dtd"
   xmlns:inkscape="http://www.inkscape.org/namespaces/inkscape"
   version="1.1"
   id="svg463"
   xml:space="preserve"
   width="2.8671334"
   height="2.8669999"
   viewBox="0 0 2.8671334 2.8669999"
   sodipodi:docname="del-icon.svg"
   inkscape:version="0.92.4 (unknown)"><metadata
     id="metadata469"><rdf:RDF><cc:Work
         rdf:about=""><dc:format>image/svg+xml</dc:format><dc:type
           rdf:resource="http://purl.org/dc/dcmitype/StillImage" /><dc:title></dc:title></cc:Work></rdf:RDF></metadata><defs
     id="defs467"><clipPath
       clipPathUnits="userSpaceOnUse"
       id="clipPath479"><path
         d="M 0,3 H 3 V 0 H 0 Z"
         id="path477"
         inkscape:connector-curvature="0" /></clipPath></defs><sodipodi:namedview
     pagecolor="#ffffff"
     bordercolor="#666666"
     borderopacity="1"
     objecttolerance="10"
     gridtolerance="10"
     guidetolerance="10"
     inkscape:pageopacity="0"
     inkscape:pageshadow="2"
     inkscape:window-width="1920"
     inkscape:window-height="978"
     id="namedview465"
     showgrid="false"
     inkscape:zoom="59"
     inkscape:cx="2"
     inkscape:cy="2"
     inkscape:window-x="0"
     inkscape:window-y="27"
     inkscape:window-maximized="1"
     inkscape:current-layer="g471" /><g
     id="g471"
     inkscape:groupmode="layer"
     inkscape:label="del-icon"
     transform="matrix(1.3333333,0,0,-1.3333333,0,2.8669999)"><g
       id="g473"><g
         id="g475"
         clip-path="url(#clipPath479)"><g
           id="g481"
           transform="translate(0.1089)"><path
             d="m 0,0 c -0.028,0 -0.056,0.011 -0.077,0.032 -0.043,0.042 -0.043,0.112 0,0.154 l 1.932,1.932 c 0.043,0.043 0.112,0.043 0.154,0 0.043,-0.042 0.043,-0.111 0,-0.153 L 0.077,0.032 C 0.056,0.011 0.028,0 0,0"
             style="fill:#000000;fill-opacity:1;fill-rule:nonzero;stroke:none"
             id="path483"
             inkscape:connector-curvature="0" /></g><g
           id="g485"
           transform="translate(2.0411)"><path
             d="m 0,0 c -0.028,0 -0.056,0.011 -0.077,0.032 l -1.932,1.933 c -0.043,0.042 -0.043,0.111 0,0.153 0.042,0.043 0.111,0.043 0.154,0 L 0.077,0.186 C 0.12,0.144 0.12,0.074 0.077,0.032 0.056,0.011 0.028,0 0,0"
             style="fill:#000000;fill-opacity:1;fill-rule:nonzero;stroke:none"
             id="path487"
             inkscape:connector-curvature="0" /></g></g></g></g></svg>