<?xml version="1.0" encoding="UTF-8" standalone="no"?>
<!-- Created with Inkscape (http://www.inkscape.org/) -->

<svg
   xmlns:dc="http://purl.org/dc/elements/1.1/"
   xmlns:cc="http://creativecommons.org/ns#"
   xmlns:rdf="http://www.w3.org/1999/02/22-rdf-syntax-ns#"
   xmlns:svg="http://www.w3.org/2000/svg"
   xmlns="http://www.w3.org/2000/svg"
   xmlns:sodipodi="http://sodipodi.sourceforge.net/DTD/sodipodi-0.dtd"
   xmlns:inkscape="http://www.inkscape.org/namespaces/inkscape"
   version="1.1"
   id="svg29"
   xml:space="preserve"
   width="6.0453334"
   height="4.0333333"
   viewBox="0 0 6.0453334 4.0333333"
   sodipodi:docname="long-arrow.svg"
   inkscape:version="0.92.4 (unknown)"><metadata
     id="metadata35"><rdf:RDF><cc:Work
         rdf:about=""><dc:format>image/svg+xml</dc:format><dc:type
           rdf:resource="http://purl.org/dc/dcmitype/StillImage" /><dc:title></dc:title></cc:Work></rdf:RDF></metadata><defs
     id="defs33"><clipPath
       clipPathUnits="userSpaceOnUse"
       id="clipPath45"><path
         d="M 0,4.534 H 3.026 V 0 H 0 Z"
         id="path43"
         inkscape:connector-curvature="0" /></clipPath></defs><sodipodi:namedview
     pagecolor="#ffffff"
     bordercolor="#666666"
     borderopacity="1"
     objecttolerance="10"
     gridtolerance="10"
     guidetolerance="10"
     inkscape:pageopacity="0"
     inkscape:pageshadow="2"
     inkscape:window-width="1920"
     inkscape:window-height="978"
     id="namedview31"
     showgrid="false"
     inkscape:zoom="46.608518"
     inkscape:cx="2.5263484"
     inkscape:cy="2.215011"
     inkscape:window-x="0"
     inkscape:window-y="27"
     inkscape:window-maximized="1"
     inkscape:current-layer="g37" /><g
     id="g37"
     inkscape:groupmode="layer"
     inkscape:label="long-arrow"
     transform="matrix(1.3333333,0,0,-1.3333333,1.0049333,5.0393332)"><g
       id="g67"
       transform="rotate(90,1.5133,2.267)"><g
         id="g39"><g
           clip-path="url(#clipPath45)"
           id="g41"><g
             transform="translate(1.5133)"
             id="g47"><path
               inkscape:connector-curvature="0"
               id="path49"
               style="fill:#000000;fill-opacity:1;fill-rule:nonzero;stroke:none"
               d="m 0,0 c -0.06,0 -0.107,0.048 -0.107,0.107 v 4.32 c 0,0.059 0.047,0.107 0.107,0.107 0.06,0 0.107,-0.048 0.107,-0.107 V 0.107 C 0.107,0.048 0.06,0 0,0" /></g><g
             transform="translate(1.5133)"
             id="g51"><path
               inkscape:connector-curvature="0"
               id="path53"
               style="fill:#000000;fill-opacity:1;fill-rule:nonzero;stroke:none"
               d="m 0,0 c -0.027,0 -0.055,0.011 -0.076,0.031 -0.042,0.042 -0.042,0.111 0,0.153 l 1.405,1.405 c 0.042,0.042 0.11,0.042 0.152,0 0.042,-0.042 0.042,-0.11 0,-0.152 L 0.076,0.031 C 0.055,0.011 0.027,0 0,0" /></g><g
             transform="translate(1.5133)"
             id="g55"><path
               inkscape:connector-curvature="0"
               id="path57"
               style="fill:#000000;fill-opacity:1;fill-rule:nonzero;stroke:none"
               d="m 0,0 c -0.027,0 -0.055,0.011 -0.076,0.031 l -1.405,1.406 c -0.042,0.042 -0.042,0.11 0,0.152 0.042,0.042 0.109,0.042 0.151,0 L 0.076,0.184 C 0.118,0.142 0.118,0.073 0.076,0.031 0.055,0.011 0.027,0 0,0" /></g></g></g></g></g></svg>