<?xml version="1.0" encoding="UTF-8" standalone="no"?>
<!-- Created with Inkscape (http://www.inkscape.org/) -->

<svg
   xmlns:dc="http://purl.org/dc/elements/1.1/"
   xmlns:cc="http://creativecommons.org/ns#"
   xmlns:rdf="http://www.w3.org/1999/02/22-rdf-syntax-ns#"
   xmlns:svg="http://www.w3.org/2000/svg"
   xmlns="http://www.w3.org/2000/svg"
   xmlns:sodipodi="http://sodipodi.sourceforge.net/DTD/sodipodi-0.dtd"
   xmlns:inkscape="http://www.inkscape.org/namespaces/inkscape"
   version="1.1"
   id="svg250"
   xml:space="preserve"
   width="8.7103729"
   height="8.5742531"
   viewBox="0 0 8.7103729 8.5742531"
   sodipodi:docname="phone-icon.svg"
   inkscape:version="0.92.4 (unknown)"><metadata
     id="metadata256"><rdf:RDF><cc:Work
         rdf:about=""><dc:format>image/svg+xml</dc:format><dc:type
           rdf:resource="http://purl.org/dc/dcmitype/StillImage" /><dc:title></dc:title></cc:Work></rdf:RDF></metadata><defs
     id="defs254"><clipPath
       clipPathUnits="userSpaceOnUse"
       id="clipPath266"><path
         d="M 0,6.431 H 6.533 V 0 H 0 Z"
         id="path264"
         inkscape:connector-curvature="0" /></clipPath></defs><sodipodi:namedview
     pagecolor="#ffffff"
     bordercolor="#666666"
     borderopacity="1"
     objecttolerance="10"
     gridtolerance="10"
     guidetolerance="10"
     inkscape:pageopacity="0"
     inkscape:pageshadow="2"
     inkscape:window-width="1920"
     inkscape:window-height="978"
     id="namedview252"
     showgrid="false"
     inkscape:zoom="92.952703"
     inkscape:cx="4.3551865"
     inkscape:cy="4.2871265"
     inkscape:window-x="0"
     inkscape:window-y="27"
     inkscape:window-maximized="1"
     inkscape:current-layer="g258" /><g
     id="g258"
     inkscape:groupmode="layer"
     inkscape:label="phone-icon"
     transform="matrix(1.3333333,0,0,-1.3333333,0,8.5742533)"><g
       id="g260"><g
         id="g262"
         clip-path="url(#clipPath266)"><g
           id="g268"
           transform="translate(1.1889,5.9931)"><path
             d="m 0,0 c -0.078,0 -0.157,-0.023 -0.219,-0.071 l -0.052,-0.04 c -0.502,-0.387 -0.769,-1.012 -0.695,-1.629 0.08,-0.664 0.392,-1.672 1.42,-2.699 0.653,-0.654 1.343,-1.082 2.048,-1.274 0.779,-0.211 1.611,0.068 2.12,0.712 l 0.036,0.046 c 0.109,0.138 0.096,0.358 -0.028,0.482 l -0.565,0.565 c -0.143,0.143 -0.376,0.143 -0.518,0 L 3.536,-3.917 3.102,-4.251 C 2.901,-4.405 2.648,-4.463 2.407,-4.41 1.347,-4.173 0.719,-3.033 0.439,-2.375 0.322,-2.1 0.363,-1.782 0.545,-1.546 l 0.278,0.361 c 0.144,0.143 0.144,0.375 0,0.518 L 0.259,-0.102 C 0.191,-0.035 0.096,0 0,0 m 3.023,-5.993 c -0.191,0 -0.385,0.025 -0.576,0.077 -0.742,0.201 -1.463,0.648 -2.142,1.328 -1.071,1.07 -1.396,2.126 -1.48,2.823 -0.084,0.691 0.214,1.389 0.777,1.822 l 0.051,0.039 c 0.22,0.17 0.559,0.148 0.755,-0.049 L 0.973,-0.518 C 1.196,-0.741 1.198,-1.104 0.978,-1.329 L 0.712,-1.675 C 0.576,-1.851 0.547,-2.087 0.634,-2.292 c 0.263,-0.622 0.85,-1.696 1.819,-1.912 0.18,-0.04 0.369,0.004 0.52,0.12 l 0.429,0.33 c 0.226,0.22 0.588,0.218 0.812,-0.005 l 0.565,-0.565 c 0.2,-0.199 0.219,-0.541 0.044,-0.761 L 4.787,-5.131 C 4.351,-5.684 3.697,-5.993 3.023,-5.993"
             style="fill-opacity:1;fill-rule:nonzero;stroke:none"
             id="path270"
             inkscape:connector-curvature="0" /></g><g
           id="g272"
           transform="translate(4.4857,3.2011)"><path
             d="m 0,0 c -0.059,0 -0.105,0.047 -0.105,0.105 0,0.26 -0.102,0.504 -0.286,0.687 -0.183,0.184 -0.427,0.285 -0.687,0.285 -0.058,0 -0.106,0.048 -0.106,0.106 0,0.058 0.048,0.105 0.106,0.105 0.316,0 0.613,-0.123 0.837,-0.347 C -0.018,0.718 0.105,0.421 0.105,0.105 0.105,0.047 0.059,0 0,0"
             style="fill-opacity:1;fill-rule:nonzero;stroke:none"
             id="path274"
             inkscape:connector-curvature="0" /></g><g
           id="g276"
           transform="translate(5.5014,3.2011)"><path
             d="m 0,0 c -0.059,0 -0.105,0.047 -0.105,0.105 0,0.531 -0.207,1.03 -0.582,1.405 -0.376,0.376 -0.875,0.583 -1.407,0.583 -0.057,0 -0.105,0.047 -0.105,0.105 0,0.058 0.048,0.105 0.105,0.105 0.588,0 1.14,-0.228 1.555,-0.644 C -0.124,1.244 0.105,0.692 0.105,0.105 0.105,0.047 0.058,0 0,0"
             style="fill-opacity:1;fill-rule:nonzero;stroke:none"
             id="path278"
             inkscape:connector-curvature="0" /></g><g
           id="g280"
           transform="translate(6.4271,3.2006)"><path
             d="m 0,0 c -0.058,0 -0.105,0.047 -0.105,0.105 0,0.779 -0.303,1.511 -0.854,2.061 -0.55,0.55 -1.282,0.854 -2.061,0.854 -0.057,0 -0.105,0.046 -0.105,0.105 0,0.058 0.048,0.105 0.105,0.105 0.835,0 1.621,-0.325 2.21,-0.915 C -0.22,1.725 0.105,0.94 0.105,0.105 0.105,0.047 0.059,0 0,0"
             style="fill-opacity:1;fill-rule:nonzero;stroke:none"
             id="path282"
             inkscape:connector-curvature="0" /></g></g></g></g></svg>